# xmcd
#
# Track frame offsets:
#	150
#	17885
#	32461
#	50247
#	62934
#	78112
#	94760
#	108524
#	124691
#	145683
#	162284
#	180464
#	196492
#	208264
#
# Disc length: 3013 seconds
#
# Revision: 1
# Processed by: cddbd v1.4PL0 Copyright (c) Steve Scherf et al.
# Submitted via: audiograbber 1.80
#
DISCID=c10bc30e
DTITLE=Roberio e seus teclados - Vol.8
DYEAR=1900
DGENRE=
TTITLE0=Jeito bom
TTITLE1=Onde andara voce
TTITLE2=Cheiro no cangote
TTITLE3=Você deixou alguem esperar
TTITLE4=Docê, Docê, Amor
TTITLE5=Meu coração só que chorar
TTITLE6=Tem pouca diferença
TTITLE7=Samarina
TTITLE8=Dois
TTITLE9=Peão aboiador
TTITLE10=Toma juizo
TTITLE11=O gato da rosinha
TTITLE12=Em plena lua de mel
TTITLE13=Dia a Dia de rodeio
EXTD=
EXTT0=
EXTT1=
EXTT2=
EXTT3=
EXTT4=
EXTT5=
EXTT6=
EXTT7=
EXTT8=
EXTT9=
EXTT10=
EXTT11=
EXTT12=
EXTT13=
PLAYORDER=
